<svg width="277" height="104" viewBox="0 0 277 104" fill="none" xmlns="http://www.w3.org/2000/svg">
<path d="M11.4492 83.2666C8.68229 83.2666 6.48503 82.0459 4.85742 79.6045C3.26237 77.1631 2.28581 73.68 1.92773 69.1553C1.79753 67.5928 1.78125 66.0465 1.87891 64.5166C1.97656 62.9867 2.13932 61.5869 2.36719 60.3174C2.59505 59.0479 2.87174 57.9574 3.19727 57.0459C3.52279 56.1344 3.84831 55.516 4.17383 55.1904C4.49935 54.8649 4.8737 54.5719 5.29688 54.3115C5.72005 54.0511 6.12695 53.8558 6.51758 53.7256C6.94076 53.5628 7.33138 53.4977 7.68945 53.5303C8.04753 53.5303 8.34049 53.6279 8.56836 53.8232C7.88477 55.9717 7.36393 58.1038 7.00586 60.2197C6.64779 62.3031 6.4362 64.2887 6.37109 66.1768C6.33854 68.0648 6.41992 69.8226 6.61523 71.4502C6.8431 73.0778 7.1849 74.4775 7.64062 75.6494C8.09635 76.8213 8.66602 77.749 9.34961 78.4326C10.0332 79.0837 10.8145 79.4092 11.6934 79.4092C13.2233 79.4092 14.3789 78.7419 15.1602 77.4072C15.974 76.0726 16.5436 74.3636 16.8691 72.2803C17.1947 70.1969 17.3574 67.8857 17.3574 65.3467C17.3574 62.8076 17.3411 60.3174 17.3086 57.876C17.276 56.7041 17.3574 55.8089 17.5527 55.1904C17.7806 54.5394 18.2526 54.0837 18.9688 53.8232C19.2292 53.7256 19.4896 53.6442 19.75 53.5791C20.2708 53.4489 20.694 53.4814 21.0195 53.6768C21.2799 54.7184 21.4753 56.0205 21.6055 57.583C21.7682 59.113 21.8822 60.6266 21.9473 62.124C22.0449 63.8818 22.0938 65.6885 22.0938 67.5439C22.1589 68.195 22.224 69.0902 22.2891 70.2295C22.3867 71.3688 22.4355 72.6383 22.4355 74.0381C22.4355 75.4378 22.3867 76.9352 22.2891 78.5303C22.1914 80.0928 21.9961 81.6553 21.7031 83.2178C21.4102 84.7477 21.0033 86.2126 20.4824 87.6123C19.9616 89.0446 19.2617 90.2979 18.3828 91.3721C17.5039 92.4788 16.446 93.3415 15.209 93.96C13.972 94.611 12.5072 94.9365 10.8145 94.9365C9.44727 94.9365 8.24284 94.5622 7.20117 93.8135C6.15951 93.0648 5.31315 92.2021 4.66211 91.2256C4.04362 90.2816 3.62044 89.3701 3.39258 88.4912C3.19727 87.6123 3.24609 87.0264 3.53906 86.7334L5.98047 84.5361C6.30599 86.1312 6.76172 87.3519 7.34766 88.1982C7.96615 89.0446 8.58464 89.6631 9.20312 90.0537C9.91927 90.5094 10.668 90.7699 11.4492 90.835C12.7188 90.835 13.7441 90.5094 14.5254 89.8584C15.3392 89.2399 15.9902 88.361 16.4785 87.2217C16.9668 86.0824 17.3249 84.7314 17.5527 83.1689C17.7806 81.5739 17.9434 79.8486 18.041 77.9932C17.4225 79.458 16.5762 80.7113 15.502 81.7529C14.4603 82.762 13.1094 83.2666 11.4492 83.2666ZM39.7207 78.335C39.6556 79.6045 39.4277 80.7764 39.0371 81.8506C38.679 82.9248 38.1745 83.8688 37.5234 84.6826C36.8724 85.4639 36.0911 86.0824 35.1797 86.5381C34.3008 86.9938 33.3242 87.238 32.25 87.2705C31.306 87.3031 30.4108 87.0752 29.5645 86.5869C28.7507 86.0986 28.0345 85.415 27.416 84.5361C26.7975 83.6572 26.3255 82.6156 26 81.4111C25.707 80.1742 25.6257 78.8395 25.7559 77.4072C25.8535 75.7471 26.1628 74.3311 26.6836 73.1592C27.2044 71.9548 27.7578 70.9619 28.3438 70.1807C28.9297 69.3994 29.4668 68.8298 29.9551 68.4717C30.4759 68.0811 30.8014 67.8532 30.9316 67.7881C31.1595 67.6904 31.3711 67.6742 31.5664 67.7393C31.7617 67.7718 31.9733 67.8206 32.2012 67.8857C32.2663 67.9183 32.3314 67.9997 32.3965 68.1299C32.5267 68.3577 32.6081 68.7809 32.6406 69.3994C32.8034 69.0413 33.015 68.7484 33.2754 68.5205C33.5358 68.2926 33.7962 68.1299 34.0566 68.0322C34.3822 67.902 34.7077 67.8206 35.0332 67.7881C35.2611 67.7555 35.6517 67.9346 36.2051 68.3252C36.791 68.7158 37.3444 69.3343 37.8652 70.1807C38.4186 71.027 38.8906 72.1338 39.2812 73.501C39.6719 74.8356 39.8184 76.4469 39.7207 78.335ZM36.4004 77.749C36.4329 76.9678 36.4004 76.1865 36.3027 75.4053C36.2376 74.5915 36.1074 73.859 35.9121 73.208C35.7493 72.5244 35.5378 71.9873 35.2773 71.5967C35.0169 71.1735 34.7565 70.9619 34.4961 70.9619C34.2031 71.027 33.8776 71.1735 33.5195 71.4014C33.2266 71.5967 32.901 71.9059 32.543 72.3291C32.1849 72.7523 31.8431 73.3545 31.5176 74.1357C31.485 74.0381 31.4525 73.859 31.4199 73.5986C31.3874 73.3708 31.3548 73.0778 31.3223 72.7197C31.3223 72.3291 31.3548 71.8083 31.4199 71.1572C30.9642 71.7106 30.6061 72.3617 30.3457 73.1104C30.1178 73.859 29.9388 74.5752 29.8086 75.2588C29.6784 76.0726 29.5807 76.8864 29.5156 77.7002C29.4831 78.5791 29.5156 79.4417 29.6133 80.2881C29.7435 81.1344 29.9388 81.8831 30.1992 82.5342C30.4922 83.1852 30.834 83.7061 31.2246 84.0967C31.6152 84.4873 32.0872 84.6663 32.6406 84.6338C33.194 84.6012 33.6823 84.3734 34.1055 83.9502C34.5286 83.527 34.903 82.9899 35.2285 82.3389C35.554 81.6878 35.8145 80.9554 36.0098 80.1416C36.2051 79.3278 36.3353 78.5303 36.4004 77.749ZM53.4414 68.5693C53.4414 68.2113 53.653 67.9508 54.0762 67.7881C54.5319 67.5928 55.0039 67.4951 55.4922 67.4951C56.013 67.4951 56.485 67.5928 56.9082 67.7881C57.3314 67.9508 57.5267 68.1787 57.4941 68.4717C57.4616 68.6995 57.429 69.1553 57.3965 69.8389C57.3639 70.4899 57.3151 71.2712 57.25 72.1826C57.2174 73.0941 57.1686 74.0706 57.1035 75.1123C57.0384 76.154 56.9733 77.1794 56.9082 78.1885C56.8757 79.165 56.8431 80.0765 56.8105 80.9229C56.8105 81.7692 56.8105 82.4202 56.8105 82.876C56.8105 83.4619 56.8431 83.999 56.9082 84.4873C56.9733 84.9105 57.0547 85.3337 57.1523 85.7568C57.25 86.1475 57.3965 86.4242 57.5918 86.5869C57.3314 86.6846 57.0547 86.7497 56.7617 86.7822C56.5013 86.8148 56.2572 86.8473 56.0293 86.8799C55.7689 86.9124 55.5085 86.9287 55.248 86.9287C54.6947 86.9287 54.2227 86.8148 53.832 86.5869C53.474 86.359 53.2949 85.887 53.2949 85.1709C53.2949 84.8128 53.3112 84.292 53.3438 83.6084C53.4089 82.9248 53.474 82.1924 53.5391 81.4111C53.3112 82.0947 53.0345 82.7946 52.709 83.5107C52.3835 84.2269 51.9766 84.8617 51.4883 85.415C51.0326 85.9684 50.5117 86.4242 49.9258 86.7822C49.3398 87.1403 48.6725 87.3193 47.9238 87.3193C47.0775 87.3193 46.2962 87.1403 45.5801 86.7822C44.8965 86.4242 44.2943 85.9196 43.7734 85.2686C43.2526 84.585 42.862 83.7549 42.6016 82.7783C42.3411 81.8018 42.2435 80.6787 42.3086 79.4092C42.3086 78.4326 42.3249 77.391 42.3574 76.2842C42.39 75.3402 42.4388 74.2497 42.5039 73.0127C42.569 71.7757 42.6829 70.4899 42.8457 69.1553C42.8783 69.0251 43.1061 68.8623 43.5293 68.667C43.9525 68.4717 44.4245 68.3089 44.9453 68.1787C45.4661 68.0485 45.9707 67.9997 46.459 68.0322C46.9473 68.0648 47.3053 68.2601 47.5332 68.6182C47.3704 69.2041 47.2077 69.904 47.0449 70.7178C46.8822 71.499 46.7357 72.3128 46.6055 73.1592C46.4753 74.0055 46.3776 74.8356 46.3125 75.6494C46.2474 76.4632 46.2148 77.2119 46.2148 77.8955C46.2148 78.514 46.2474 79.1976 46.3125 79.9463C46.3776 80.6624 46.4915 81.346 46.6543 81.9971C46.8496 82.6156 47.11 83.1364 47.4355 83.5596C47.7936 83.9827 48.2493 84.1943 48.8027 84.1943C49.4212 84.1943 49.9583 83.9339 50.4141 83.4131C50.9023 82.8597 51.3092 82.1598 51.6348 81.3135C51.9603 80.4671 52.237 79.5068 52.4648 78.4326C52.6927 77.3258 52.8717 76.2354 53.002 75.1611C53.1647 74.0869 53.2624 73.0615 53.2949 72.085C53.36 71.0758 53.4089 70.2295 53.4414 69.5459V68.5693ZM74.1445 71.7432C74.1445 72.1989 74.0143 72.6709 73.7539 73.1592C73.526 73.6149 73.2331 74.0544 72.875 74.4775C72.5169 74.9007 72.11 75.2751 71.6543 75.6006C71.2311 75.8936 70.8242 76.0726 70.4336 76.1377C70.694 75.1286 70.7754 74.3473 70.6777 73.7939C70.5801 73.2406 70.4173 72.8337 70.1895 72.5732C69.929 72.2803 69.6035 72.1175 69.2129 72.085C68.627 72.085 68.0573 72.4268 67.5039 73.1104C66.9831 73.7614 66.5273 74.5752 66.1367 75.5518C65.7461 76.4958 65.4368 77.5212 65.209 78.6279C64.9811 79.7021 64.8672 80.6787 64.8672 81.5576C64.8346 82.1761 64.8509 82.7783 64.916 83.3643C64.9486 83.8525 64.9974 84.3571 65.0625 84.8779C65.1602 85.3988 65.2904 85.8057 65.4531 86.0986C65.2578 86.2614 64.9323 86.4567 64.4766 86.6846C64.0534 86.9124 63.5977 87.0589 63.1094 87.124C62.6536 87.1891 62.2305 87.1077 61.8398 86.8799C61.4818 86.652 61.2865 86.1637 61.2539 85.415C61.1888 84.6989 61.14 83.9014 61.1074 83.0225C61.1074 82.111 61.1074 81.2158 61.1074 80.3369C61.14 79.4255 61.1725 78.5303 61.2051 77.6514C61.2376 76.7725 61.2865 75.9587 61.3516 75.21C61.4167 73.7777 61.4492 72.6709 61.4492 71.8896C61.4492 71.1084 61.4329 70.3597 61.4004 69.6436C61.4004 69.5133 61.612 69.3343 62.0352 69.1064C62.4909 68.846 62.9792 68.6182 63.5 68.4229C64.0534 68.2275 64.5579 68.1136 65.0137 68.0811C65.4694 68.0485 65.6973 68.1462 65.6973 68.374C65.6973 68.7321 65.6484 69.4482 65.5508 70.5225C65.4857 71.5641 65.388 72.6546 65.2578 73.7939C65.4857 73.1755 65.7786 72.5081 66.1367 71.792C66.5273 71.0758 66.9668 70.4085 67.4551 69.79C67.9434 69.1715 68.4967 68.667 69.1152 68.2764C69.7337 67.8532 70.4173 67.6416 71.166 67.6416C71.752 67.6416 72.224 67.8206 72.582 68.1787C72.9727 68.5368 73.2819 68.9437 73.5098 69.3994C73.7376 69.8551 73.9004 70.3109 73.998 70.7666C74.0957 71.2223 74.1445 71.5479 74.1445 71.7432ZM100.902 54.4092C102.107 54.4417 103.279 54.8649 104.418 55.6787C105.59 56.4925 106.615 57.6318 107.494 59.0967C108.373 60.5615 109.057 62.3193 109.545 64.3701C110.066 66.4209 110.31 68.7158 110.277 71.2549C110.212 74.0869 109.87 76.7074 109.252 79.1162C108.633 81.5251 107.771 83.6084 106.664 85.3662C105.59 87.124 104.288 88.4912 102.758 89.4678C101.228 90.4443 99.5352 90.9163 97.6797 90.8838C95.9219 90.8512 94.3105 90.4606 92.8457 89.7119C91.4134 88.9632 90.1927 87.8402 89.1836 86.3428C88.1745 84.8454 87.3932 82.9574 86.8398 80.6787C86.319 78.4001 86.0911 75.7145 86.1562 72.6221C86.2214 69.5296 86.6771 66.8278 87.5234 64.5166C88.4023 62.1729 89.444 60.2197 90.6484 58.6572C91.8529 57.0622 93.0898 55.8577 94.3594 55.0439C95.6289 54.1976 96.7031 53.7256 97.582 53.6279C98.1354 54.0186 98.526 54.3929 98.7539 54.751C99.0143 54.6533 99.3073 54.5719 99.6328 54.5068C99.9909 54.4417 100.414 54.4092 100.902 54.4092ZM105.297 71.5479C105.329 69.8877 105.215 68.2926 104.955 66.7627C104.695 65.2002 104.337 63.8167 103.881 62.6123C103.458 61.4079 102.969 60.4476 102.416 59.7314C101.863 58.9827 101.309 58.5921 100.756 58.5596C100.333 58.5921 99.9095 58.7223 99.4863 58.9502C99.1283 59.1781 98.7376 59.5199 98.3145 59.9756C97.8913 60.4313 97.5007 61.0824 97.1426 61.9287C96.8171 61.473 96.6055 60.9847 96.5078 60.4639C96.4427 59.943 96.4427 59.4222 96.5078 58.9014C95.6289 59.5524 94.8639 60.3662 94.2129 61.3428C93.5618 62.2868 93.0247 63.3447 92.6016 64.5166C92.1784 65.6559 91.8529 66.8766 91.625 68.1787C91.3971 69.4482 91.2669 70.7503 91.2344 72.085C91.1693 74.7542 91.2995 77.0329 91.625 78.9209C91.9831 80.8089 92.4551 82.3714 93.041 83.6084C93.6595 84.8128 94.3757 85.708 95.1895 86.2939C96.0033 86.8473 96.8822 87.124 97.8262 87.124C98.9329 87.1566 99.9258 86.766 100.805 85.9521C101.716 85.1058 102.497 83.9665 103.148 82.5342C103.799 81.1019 104.304 79.4417 104.662 77.5537C105.053 75.6657 105.264 73.6637 105.297 71.5479ZM126.586 71.7432C126.586 72.1989 126.456 72.6709 126.195 73.1592C125.967 73.6149 125.674 74.0544 125.316 74.4775C124.958 74.9007 124.551 75.2751 124.096 75.6006C123.673 75.8936 123.266 76.0726 122.875 76.1377C123.135 75.1286 123.217 74.3473 123.119 73.7939C123.021 73.2406 122.859 72.8337 122.631 72.5732C122.37 72.2803 122.045 72.1175 121.654 72.085C121.068 72.085 120.499 72.4268 119.945 73.1104C119.424 73.7614 118.969 74.5752 118.578 75.5518C118.188 76.4958 117.878 77.5212 117.65 78.6279C117.423 79.7021 117.309 80.6787 117.309 81.5576C117.276 82.1761 117.292 82.7783 117.357 83.3643C117.39 83.8525 117.439 84.3571 117.504 84.8779C117.602 85.3988 117.732 85.8057 117.895 86.0986C117.699 86.2614 117.374 86.4567 116.918 86.6846C116.495 86.9124 116.039 87.0589 115.551 87.124C115.095 87.1891 114.672 87.1077 114.281 86.8799C113.923 86.652 113.728 86.1637 113.695 85.415C113.63 84.6989 113.581 83.9014 113.549 83.0225C113.549 82.111 113.549 81.2158 113.549 80.3369C113.581 79.4255 113.614 78.5303 113.646 77.6514C113.679 76.7725 113.728 75.9587 113.793 75.21C113.858 73.7777 113.891 72.6709 113.891 71.8896C113.891 71.1084 113.874 70.3597 113.842 69.6436C113.842 69.5133 114.053 69.3343 114.477 69.1064C114.932 68.846 115.421 68.6182 115.941 68.4229C116.495 68.2275 116.999 68.1136 117.455 68.0811C117.911 68.0485 118.139 68.1462 118.139 68.374C118.139 68.7321 118.09 69.4482 117.992 70.5225C117.927 71.5641 117.829 72.6546 117.699 73.7939C117.927 73.1755 118.22 72.5081 118.578 71.792C118.969 71.0758 119.408 70.4085 119.896 69.79C120.385 69.1715 120.938 68.667 121.557 68.2764C122.175 67.8532 122.859 67.6416 123.607 67.6416C124.193 67.6416 124.665 67.8206 125.023 68.1787C125.414 68.5368 125.723 68.9437 125.951 69.3994C126.179 69.8551 126.342 70.3109 126.439 70.7666C126.537 71.2223 126.586 71.5479 126.586 71.7432ZM133.52 87.1729C132.836 87.1729 132.136 86.9938 131.42 86.6357C130.704 86.2777 130.036 85.7406 129.418 85.0244C128.799 84.2757 128.295 83.3643 127.904 82.29C127.514 81.1833 127.318 79.8975 127.318 78.4326C127.318 76.2842 127.595 74.5101 128.148 73.1104C128.702 71.6781 129.369 70.5387 130.15 69.6924C130.964 68.8135 131.843 68.195 132.787 67.8369C133.731 67.4788 134.594 67.2998 135.375 67.2998C136.189 67.2998 136.856 67.4463 137.377 67.7393C137.93 67.9997 138.386 68.3089 138.744 68.667V67.7393C138.939 67.5765 139.151 67.43 139.379 67.2998C139.639 67.1696 139.9 67.0719 140.16 67.0068C140.421 66.9092 140.697 66.8604 140.99 66.8604H141.723C141.918 66.8929 142.113 66.9255 142.309 66.958C142.536 66.9906 142.699 67.0719 142.797 67.2021C142.602 71.4665 142.439 74.917 142.309 77.5537C142.178 80.1904 142.081 82.2412 142.016 83.7061C141.918 85.4313 141.853 86.6846 141.82 87.4658C141.755 88.833 141.576 90.1839 141.283 91.5186C140.99 92.8857 140.535 94.1064 139.916 95.1807C139.298 96.2549 138.484 97.1175 137.475 97.7686C136.465 98.4196 135.229 98.7451 133.764 98.7451C132.494 98.7451 131.469 98.501 130.688 98.0127C129.939 97.5244 129.353 96.9222 128.93 96.2061C128.539 95.4899 128.279 94.7249 128.148 93.9111C128.018 93.1299 127.953 92.4137 127.953 91.7627C127.953 91.5999 128.035 91.3558 128.197 91.0303C128.393 90.7048 128.653 90.363 128.979 90.0049C129.337 89.6794 129.776 89.3864 130.297 89.126C130.818 88.8656 131.404 88.7028 132.055 88.6377C131.762 89.5166 131.583 90.3141 131.518 91.0303C131.452 91.4209 131.436 91.8115 131.469 92.2021C131.469 93.2764 131.68 94.1715 132.104 94.8877C132.527 95.6038 133.178 95.9619 134.057 95.9619C135.001 95.9619 135.766 95.555 136.352 94.7412C136.938 93.96 137.377 92.9997 137.67 91.8604C137.995 90.7536 138.207 89.5817 138.305 88.3447C138.435 87.1403 138.5 86.1149 138.5 85.2686V83.8525C138.305 84.2106 138.061 84.585 137.768 84.9756C137.507 85.3662 137.182 85.7243 136.791 86.0498C136.4 86.3753 135.928 86.6357 135.375 86.8311C134.854 87.0589 134.236 87.1729 133.52 87.1729ZM135.521 70.083C134.968 70.083 134.431 70.3271 133.91 70.8154C133.422 71.3037 132.982 71.9548 132.592 72.7686C132.201 73.5498 131.892 74.445 131.664 75.4541C131.436 76.4632 131.322 77.4723 131.322 78.4814C131.322 79.1325 131.355 79.7998 131.42 80.4834C131.518 81.167 131.68 81.8018 131.908 82.3877C132.169 82.9411 132.494 83.3968 132.885 83.7549C133.275 84.113 133.796 84.292 134.447 84.292C134.936 84.2594 135.391 84.0641 135.814 83.7061C136.173 83.4131 136.531 82.9411 136.889 82.29C137.279 81.639 137.589 80.7113 137.816 79.5068C138.077 79.7673 138.272 80.0114 138.402 80.2393C138.565 80.4671 138.695 80.6787 138.793 80.874C138.826 80.6136 138.842 80.3044 138.842 79.9463C138.874 79.5882 138.891 79.1813 138.891 78.7256C138.891 77.8467 138.842 76.9027 138.744 75.8936C138.646 74.8519 138.467 73.9079 138.207 73.0615C137.979 72.2152 137.637 71.5153 137.182 70.9619C136.758 70.376 136.205 70.083 135.521 70.083ZM159.936 84.2432C160.001 84.471 160.098 84.6826 160.229 84.8779C160.326 85.0407 160.456 85.2035 160.619 85.3662C160.814 85.4964 161.042 85.5778 161.303 85.6104C161.075 86.0661 160.847 86.3753 160.619 86.5381C160.489 86.6357 160.375 86.7008 160.277 86.7334C159.984 86.8311 159.545 86.8799 158.959 86.8799C158.373 86.8799 157.803 86.7008 157.25 86.3428C157.055 86.18 156.876 85.9359 156.713 85.6104C156.55 85.3499 156.404 84.9919 156.273 84.5361C156.176 84.0479 156.094 83.4294 156.029 82.6807C155.574 83.6572 155.053 84.4385 154.467 85.0244C153.913 85.5778 153.36 85.9847 152.807 86.2451C152.188 86.6032 151.553 86.8148 150.902 86.8799C150.089 86.945 149.307 86.8148 148.559 86.4893C147.842 86.1312 147.224 85.6104 146.703 84.9268C146.215 84.2106 145.84 83.348 145.58 82.3389C145.32 81.3298 145.238 80.1904 145.336 78.9209C145.434 77.5863 145.694 76.3981 146.117 75.3564C146.54 74.3148 147.045 73.387 147.631 72.5732C148.217 71.7594 148.835 71.0758 149.486 70.5225C150.137 69.9365 150.756 69.4645 151.342 69.1064C151.96 68.7158 152.481 68.4391 152.904 68.2764C153.36 68.0811 153.653 67.9671 153.783 67.9346C154.141 67.8369 154.451 67.8044 154.711 67.8369C154.971 67.8695 155.199 68.016 155.395 68.2764C155.46 68.374 155.541 68.488 155.639 68.6182C155.704 68.7484 155.785 68.9274 155.883 69.1553C155.98 69.3506 156.062 69.5785 156.127 69.8389C155.346 70.1969 154.613 70.6038 153.93 71.0596C153.246 71.4827 152.611 72.0036 152.025 72.6221C151.472 73.2406 150.984 73.9893 150.561 74.8682C150.137 75.7471 149.812 76.8213 149.584 78.0908C149.258 79.6859 149.34 80.9717 149.828 81.9482C150.349 82.9248 151.049 83.3317 151.928 83.1689C152.449 83.0062 152.953 82.6969 153.441 82.2412C153.865 81.8506 154.304 81.2646 154.76 80.4834C155.248 79.7021 155.704 78.6279 156.127 77.2607C156.29 75.3076 156.42 73.7777 156.518 72.6709C156.648 71.5316 156.762 70.6689 156.859 70.083C156.99 69.3994 157.087 68.9437 157.152 68.7158C157.25 68.5531 157.445 68.4066 157.738 68.2764C158.031 68.1136 158.357 67.9834 158.715 67.8857C159.073 67.7881 159.398 67.7393 159.691 67.7393C159.984 67.7067 160.18 67.7067 160.277 67.7393C160.342 67.7718 160.375 68.1787 160.375 68.96C160.375 69.7087 160.342 70.6689 160.277 71.8408C160.245 72.9801 160.196 74.2334 160.131 75.6006C160.066 76.9352 160.001 78.2048 159.936 79.4092C159.903 80.6136 159.87 81.6715 159.838 82.583C159.838 83.4619 159.87 84.0153 159.936 84.2432ZM169.213 85.415C169.18 85.6104 169.001 85.8219 168.676 86.0498C168.383 86.2451 168.025 86.4242 167.602 86.5869C167.211 86.7497 166.837 86.8473 166.479 86.8799C166.12 86.945 165.876 86.9124 165.746 86.7822C165.616 86.652 165.404 86.4079 165.111 86.0498C164.818 85.6917 164.639 85.1058 164.574 84.292C164.509 83.4456 164.477 82.3877 164.477 81.1182C164.477 79.8161 164.46 78.3838 164.428 76.8213V74.8682C164.428 74.2822 164.411 73.5986 164.379 72.8174C164.379 72.0361 164.363 71.2223 164.33 70.376C164.623 70.2132 164.916 70.0667 165.209 69.9365C165.535 69.7738 165.827 69.6436 166.088 69.5459C166.381 69.4157 166.658 69.318 166.918 69.2529C167.602 69.0576 168.122 68.9437 168.48 68.9111C168.839 68.8786 169.05 68.9925 169.115 69.2529C169.148 69.4482 169.132 69.9202 169.066 70.6689C169.001 71.32 168.92 72.3128 168.822 73.6475C168.725 74.9495 168.562 76.7725 168.334 79.1162C168.757 78.0745 169.099 77.1794 169.359 76.4307C169.652 75.682 169.896 75.0798 170.092 74.624C170.287 74.0706 170.466 73.6312 170.629 73.3057C170.792 72.8825 171.003 72.4105 171.264 71.8896C171.524 71.3688 171.785 70.8805 172.045 70.4248C172.338 69.9691 172.598 69.5622 172.826 69.2041C173.087 68.846 173.282 68.6344 173.412 68.5693C173.51 68.5042 173.803 68.5042 174.291 68.5693C174.779 68.6344 175.3 68.7972 175.854 69.0576C176.407 69.2855 176.944 69.6273 177.465 70.083C177.986 70.5062 178.327 71.027 178.49 71.6455C178.686 72.3617 178.751 73.3057 178.686 74.4775C178.653 75.6494 178.572 76.8538 178.441 78.0908C178.344 79.3278 178.262 80.4997 178.197 81.6064C178.132 82.7132 178.197 83.5596 178.393 84.1455C178.458 84.471 178.555 84.764 178.686 85.0244C178.751 85.2848 178.832 85.529 178.93 85.7568C179.06 85.9521 179.19 86.0986 179.32 86.1963C178.539 86.5544 177.904 86.8148 177.416 86.9775C176.928 87.1403 176.553 87.2542 176.293 87.3193C175.967 87.417 175.74 87.4495 175.609 87.417C175.316 87.3193 175.056 87.0752 174.828 86.6846C174.633 86.2939 174.454 85.6755 174.291 84.8291C174.226 84.5687 174.193 84.1455 174.193 83.5596C174.226 82.9411 174.275 82.2575 174.34 81.5088C174.405 80.7275 174.47 79.93 174.535 79.1162C174.633 78.2699 174.698 77.4886 174.73 76.7725C174.796 76.0238 174.844 75.389 174.877 74.8682C174.91 74.3148 174.91 73.9404 174.877 73.7451C174.714 73.1592 174.486 72.7523 174.193 72.5244C173.9 72.264 173.673 72.2314 173.51 72.4268C173.087 72.915 172.631 73.7126 172.143 74.8193C171.687 75.8936 171.247 77.0817 170.824 78.3838C170.401 79.6533 170.043 80.9229 169.75 82.1924C169.457 83.4619 169.278 84.5361 169.213 85.415ZM182.445 69.4482C182.445 69.2529 182.706 69.0413 183.227 68.8135C183.747 68.5856 184.317 68.4066 184.936 68.2764C185.587 68.1136 186.173 68.0322 186.693 68.0322C187.247 67.9997 187.523 68.1136 187.523 68.374C187.523 68.8623 187.491 69.5622 187.426 70.4736C187.361 71.3525 187.279 72.2965 187.182 73.3057C187.084 74.2822 186.986 75.2751 186.889 76.2842C186.791 77.2607 186.726 78.0908 186.693 78.7744C186.628 79.4906 186.563 80.2718 186.498 81.1182C186.433 81.8343 186.384 82.6318 186.352 83.5107C186.319 84.3896 186.319 85.2848 186.352 86.1963C186.352 86.359 186.189 86.5218 185.863 86.6846C185.538 86.8473 185.18 86.9613 184.789 87.0264C184.398 87.124 184.024 87.1729 183.666 87.1729C183.308 87.1729 183.113 87.1077 183.08 86.9775C183.015 86.8473 182.95 86.6195 182.885 86.2939C182.82 85.9684 182.755 85.5127 182.689 84.9268C182.624 84.3083 182.576 83.527 182.543 82.583C182.51 81.6064 182.527 80.4346 182.592 79.0674C182.722 76.3656 182.738 74.2822 182.641 72.8174C182.543 71.32 182.478 70.1969 182.445 69.4482ZM185.863 59.7314C186.514 59.7314 187.133 59.9268 187.719 60.3174C188.305 60.708 188.598 61.2288 188.598 61.8799C188.598 62.3682 188.467 62.8402 188.207 63.2959C187.979 63.7516 187.686 64.1585 187.328 64.5166C186.97 64.8747 186.563 65.1676 186.107 65.3955C185.652 65.5908 185.229 65.6885 184.838 65.6885C184.317 65.6885 183.894 65.6071 183.568 65.4443C183.243 65.249 182.982 65.0374 182.787 64.8096C182.624 64.5492 182.51 64.2725 182.445 63.9795C182.38 63.6865 182.348 63.4098 182.348 63.1494C182.348 62.8239 182.396 62.4658 182.494 62.0752C182.592 61.652 182.771 61.2777 183.031 60.9521C183.292 60.5941 183.65 60.3011 184.105 60.0732C184.561 59.8454 185.147 59.7314 185.863 59.7314ZM184.643 64.2725C184.838 64.2725 185.049 64.2074 185.277 64.0771C185.538 63.9144 185.766 63.7354 185.961 63.54C186.189 63.3447 186.368 63.1331 186.498 62.9053C186.661 62.6774 186.742 62.4821 186.742 62.3193C186.742 62.0589 186.612 61.9287 186.352 61.9287C186.189 61.9287 185.977 61.9938 185.717 62.124C185.489 62.2542 185.261 62.417 185.033 62.6123C184.805 62.7751 184.61 62.9704 184.447 63.1982C184.317 63.3936 184.252 63.5889 184.252 63.7842C184.252 64.1097 184.382 64.2725 184.643 64.2725ZM204.809 68.4229C204.809 68.8135 204.809 69.1878 204.809 69.5459C204.809 69.8714 204.76 70.1969 204.662 70.5225C204.564 70.848 204.418 71.2061 204.223 71.5967C204.027 71.9873 203.734 72.4268 203.344 72.915C202.888 73.501 202.253 74.2822 201.439 75.2588C200.658 76.2354 199.828 77.277 198.949 78.3838C198.103 79.4906 197.305 80.5811 196.557 81.6553C195.808 82.6969 195.238 83.5921 194.848 84.3408C195.238 84.0479 195.775 83.7549 196.459 83.4619C197.175 83.1364 198.054 82.9411 199.096 82.876C199.682 82.8434 200.268 82.8597 200.854 82.9248C201.374 82.9899 201.911 83.0876 202.465 83.2178C203.051 83.3154 203.588 83.4945 204.076 83.7549C204.239 84.113 204.32 84.5036 204.32 84.9268C204.353 85.3499 204.353 85.7568 204.32 86.1475C204.288 86.6032 204.223 87.0589 204.125 87.5146C203.604 87.3519 203.051 87.2217 202.465 87.124C201.911 87.0264 201.374 86.945 200.854 86.8799C200.268 86.8148 199.682 86.7822 199.096 86.7822C198.477 86.7822 197.859 86.8311 197.24 86.9287C196.687 86.9938 196.085 87.124 195.434 87.3193C194.815 87.5146 194.197 87.7751 193.578 88.1006C193.383 88.1006 193.171 88.0355 192.943 87.9053C192.748 87.8076 192.569 87.6774 192.406 87.5146C192.211 87.3519 191.999 87.1729 191.771 86.9775C191.641 86.8148 191.511 86.652 191.381 86.4893C191.153 86.1637 191.039 85.8057 191.039 85.415C191.56 84.3734 192.048 83.4782 192.504 82.7295C192.992 81.9482 193.415 81.2809 193.773 80.7275C194.197 80.109 194.587 79.5557 194.945 79.0674C195.954 77.7653 196.98 76.3981 198.021 74.9658C199.096 73.501 199.91 72.2314 200.463 71.1572C200.17 71.027 199.763 70.9131 199.242 70.8154C198.754 70.7178 198.135 70.6852 197.387 70.7178C196.15 70.7503 194.913 70.9456 193.676 71.3037C192.471 71.6292 191.641 72.1826 191.186 72.9639C190.86 72.6383 190.6 72.0687 190.404 71.2549C190.242 70.4085 190.29 69.5622 190.551 68.7158C191.104 68.4554 191.723 68.2438 192.406 68.0811C193.122 67.8857 193.773 67.7555 194.359 67.6904C195.043 67.5928 195.743 67.5439 196.459 67.5439C197.24 67.5439 198.087 67.5765 198.998 67.6416C199.747 67.7067 200.626 67.8044 201.635 67.9346C202.644 68.0322 203.702 68.195 204.809 68.4229ZM221.264 84.2432C221.329 84.471 221.426 84.6826 221.557 84.8779C221.654 85.0407 221.785 85.2035 221.947 85.3662C222.143 85.4964 222.37 85.5778 222.631 85.6104C222.403 86.0661 222.175 86.3753 221.947 86.5381C221.817 86.6357 221.703 86.7008 221.605 86.7334C221.312 86.8311 220.873 86.8799 220.287 86.8799C219.701 86.8799 219.132 86.7008 218.578 86.3428C218.383 86.18 218.204 85.9359 218.041 85.6104C217.878 85.3499 217.732 84.9919 217.602 84.5361C217.504 84.0479 217.423 83.4294 217.357 82.6807C216.902 83.6572 216.381 84.4385 215.795 85.0244C215.242 85.5778 214.688 85.9847 214.135 86.2451C213.516 86.6032 212.882 86.8148 212.23 86.8799C211.417 86.945 210.635 86.8148 209.887 86.4893C209.171 86.1312 208.552 85.6104 208.031 84.9268C207.543 84.2106 207.169 83.348 206.908 82.3389C206.648 81.3298 206.566 80.1904 206.664 78.9209C206.762 77.5863 207.022 76.3981 207.445 75.3564C207.868 74.3148 208.373 73.387 208.959 72.5732C209.545 71.7594 210.163 71.0758 210.814 70.5225C211.465 69.9365 212.084 69.4645 212.67 69.1064C213.288 68.7158 213.809 68.4391 214.232 68.2764C214.688 68.0811 214.981 67.9671 215.111 67.9346C215.469 67.8369 215.779 67.8044 216.039 67.8369C216.299 67.8695 216.527 68.016 216.723 68.2764C216.788 68.374 216.869 68.488 216.967 68.6182C217.032 68.7484 217.113 68.9274 217.211 69.1553C217.309 69.3506 217.39 69.5785 217.455 69.8389C216.674 70.1969 215.941 70.6038 215.258 71.0596C214.574 71.4827 213.939 72.0036 213.354 72.6221C212.8 73.2406 212.312 73.9893 211.889 74.8682C211.465 75.7471 211.14 76.8213 210.912 78.0908C210.587 79.6859 210.668 80.9717 211.156 81.9482C211.677 82.9248 212.377 83.3317 213.256 83.1689C213.777 83.0062 214.281 82.6969 214.77 82.2412C215.193 81.8506 215.632 81.2646 216.088 80.4834C216.576 79.7021 217.032 78.6279 217.455 77.2607C217.618 75.3076 217.748 73.7777 217.846 72.6709C217.976 71.5316 218.09 70.6689 218.188 70.083C218.318 69.3994 218.415 68.9437 218.48 68.7158C218.578 68.5531 218.773 68.4066 219.066 68.2764C219.359 68.1136 219.685 67.9834 220.043 67.8857C220.401 67.7881 220.727 67.7393 221.02 67.7393C221.312 67.7067 221.508 67.7067 221.605 67.7393C221.671 67.7718 221.703 68.1787 221.703 68.96C221.703 69.7087 221.671 70.6689 221.605 71.8408C221.573 72.9801 221.524 74.2334 221.459 75.6006C221.394 76.9352 221.329 78.2048 221.264 79.4092C221.231 80.6136 221.199 81.6715 221.166 82.583C221.166 83.4619 221.199 84.0153 221.264 84.2432ZM243.822 65.0049C243.464 64.9398 242.976 64.8747 242.357 64.8096C241.771 64.7445 241.169 64.6956 240.551 64.6631C239.835 64.6305 239.07 64.6143 238.256 64.6143C237.442 64.5492 236.417 64.5492 235.18 64.6143C233.975 64.6468 232.706 64.6631 231.371 64.6631C231.339 65.5094 231.273 66.3721 231.176 67.251C231.111 68.1299 231.046 68.9925 230.98 69.8389C230.818 71.4014 230.671 72.9964 230.541 74.624C230.443 76.2516 230.395 77.7979 230.395 79.2627C230.395 80.7275 230.476 82.0622 230.639 83.2666C230.834 84.4385 231.176 85.3662 231.664 86.0498C231.273 86.3428 230.85 86.5706 230.395 86.7334C229.939 86.8636 229.532 86.9613 229.174 87.0264C228.751 87.124 228.327 87.1729 227.904 87.1729C227.514 87.1729 227.188 87.0426 226.928 86.7822C226.667 86.5218 226.521 86.0661 226.488 85.415C226.423 84.3083 226.407 83.2015 226.439 82.0947C226.505 80.9554 226.57 79.7673 226.635 78.5303C226.732 77.2933 226.83 75.9749 226.928 74.5752C227.025 73.1429 227.123 71.5804 227.221 69.8877C227.318 68.1299 227.367 66.4209 227.367 64.7607C226.13 64.7933 225.089 64.8096 224.242 64.8096C223.396 64.8096 222.924 64.7933 222.826 64.7607C222.729 64.6956 222.615 64.5492 222.484 64.3213C222.354 64.126 222.191 63.833 221.996 63.4424C221.768 63.0518 221.492 62.4984 221.166 61.7822C221.785 61.7822 222.468 61.7822 223.217 61.7822C223.933 61.7822 224.6 61.766 225.219 61.7334C225.935 61.7008 226.651 61.6683 227.367 61.6357C227.335 61.1149 227.318 60.5615 227.318 59.9756C227.286 59.5199 227.27 59.0153 227.27 58.4619C227.27 57.876 227.253 57.3389 227.221 56.8506C227.221 56.6553 227.449 56.4274 227.904 56.167C228.393 55.874 228.913 55.6136 229.467 55.3857C230.02 55.1579 230.525 55.0114 230.98 54.9463C231.469 54.8812 231.713 54.9951 231.713 55.2881C231.713 55.5811 231.697 56.2972 231.664 57.4365C231.664 58.5433 231.632 59.8942 231.566 61.4893C231.892 61.4893 232.136 61.473 232.299 61.4404C234.024 61.3753 235.408 61.3102 236.449 61.2451C237.523 61.1475 238.402 61.1312 239.086 61.1963C239.77 61.2614 240.372 61.4242 240.893 61.6846C241.413 61.945 241.999 62.3682 242.65 62.9541C242.878 63.1494 243.074 63.361 243.236 63.5889C243.399 63.7842 243.529 64.012 243.627 64.2725C243.757 64.5003 243.822 64.7445 243.822 65.0049ZM235.912 69.4482C235.912 69.2529 236.173 69.0413 236.693 68.8135C237.214 68.5856 237.784 68.4066 238.402 68.2764C239.053 68.1136 239.639 68.0322 240.16 68.0322C240.714 67.9997 240.99 68.1136 240.99 68.374C240.99 68.8623 240.958 69.5622 240.893 70.4736C240.827 71.3525 240.746 72.2965 240.648 73.3057C240.551 74.2822 240.453 75.2751 240.355 76.2842C240.258 77.2607 240.193 78.0908 240.16 78.7744C240.095 79.4906 240.03 80.2718 239.965 81.1182C239.9 81.8343 239.851 82.6318 239.818 83.5107C239.786 84.3896 239.786 85.2848 239.818 86.1963C239.818 86.359 239.656 86.5218 239.33 86.6846C239.005 86.8473 238.646 86.9613 238.256 87.0264C237.865 87.124 237.491 87.1729 237.133 87.1729C236.775 87.1729 236.579 87.1077 236.547 86.9775C236.482 86.8473 236.417 86.6195 236.352 86.2939C236.286 85.9684 236.221 85.5127 236.156 84.9268C236.091 84.3083 236.042 83.527 236.01 82.583C235.977 81.6064 235.993 80.4346 236.059 79.0674C236.189 76.3656 236.205 74.2822 236.107 72.8174C236.01 71.32 235.945 70.1969 235.912 69.4482ZM239.33 59.7314C239.981 59.7314 240.6 59.9268 241.186 60.3174C241.771 60.708 242.064 61.2288 242.064 61.8799C242.064 62.3682 241.934 62.8402 241.674 63.2959C241.446 63.7516 241.153 64.1585 240.795 64.5166C240.437 64.8747 240.03 65.1676 239.574 65.3955C239.118 65.5908 238.695 65.6885 238.305 65.6885C237.784 65.6885 237.361 65.6071 237.035 65.4443C236.71 65.249 236.449 65.0374 236.254 64.8096C236.091 64.5492 235.977 64.2725 235.912 63.9795C235.847 63.6865 235.814 63.4098 235.814 63.1494C235.814 62.8239 235.863 62.4658 235.961 62.0752C236.059 61.652 236.238 61.2777 236.498 60.9521C236.758 60.5941 237.117 60.3011 237.572 60.0732C238.028 59.8454 238.614 59.7314 239.33 59.7314ZM238.109 64.2725C238.305 64.2725 238.516 64.2074 238.744 64.0771C239.005 63.9144 239.232 63.7354 239.428 63.54C239.656 63.3447 239.835 63.1331 239.965 62.9053C240.128 62.6774 240.209 62.4821 240.209 62.3193C240.209 62.0589 240.079 61.9287 239.818 61.9287C239.656 61.9287 239.444 61.9938 239.184 62.124C238.956 62.2542 238.728 62.417 238.5 62.6123C238.272 62.7751 238.077 62.9704 237.914 63.1982C237.784 63.3936 237.719 63.5889 237.719 63.7842C237.719 64.1097 237.849 64.2725 238.109 64.2725ZM257.836 78.335C257.771 79.6045 257.543 80.7764 257.152 81.8506C256.794 82.9248 256.29 83.8688 255.639 84.6826C254.988 85.4639 254.206 86.0824 253.295 86.5381C252.416 86.9938 251.439 87.238 250.365 87.2705C249.421 87.3031 248.526 87.0752 247.68 86.5869C246.866 86.0986 246.15 85.415 245.531 84.5361C244.913 83.6572 244.441 82.6156 244.115 81.4111C243.822 80.1742 243.741 78.8395 243.871 77.4072C243.969 75.7471 244.278 74.3311 244.799 73.1592C245.32 71.9548 245.873 70.9619 246.459 70.1807C247.045 69.3994 247.582 68.8298 248.07 68.4717C248.591 68.0811 248.917 67.8532 249.047 67.7881C249.275 67.6904 249.486 67.6742 249.682 67.7393C249.877 67.7718 250.089 67.8206 250.316 67.8857C250.382 67.9183 250.447 67.9997 250.512 68.1299C250.642 68.3577 250.723 68.7809 250.756 69.3994C250.919 69.0413 251.13 68.7484 251.391 68.5205C251.651 68.2926 251.911 68.1299 252.172 68.0322C252.497 67.902 252.823 67.8206 253.148 67.7881C253.376 67.7555 253.767 67.9346 254.32 68.3252C254.906 68.7158 255.46 69.3343 255.98 70.1807C256.534 71.027 257.006 72.1338 257.396 73.501C257.787 74.8356 257.934 76.4469 257.836 78.335ZM254.516 77.749C254.548 76.9678 254.516 76.1865 254.418 75.4053C254.353 74.5915 254.223 73.859 254.027 73.208C253.865 72.5244 253.653 71.9873 253.393 71.5967C253.132 71.1735 252.872 70.9619 252.611 70.9619C252.318 71.027 251.993 71.1735 251.635 71.4014C251.342 71.5967 251.016 71.9059 250.658 72.3291C250.3 72.7523 249.958 73.3545 249.633 74.1357C249.6 74.0381 249.568 73.859 249.535 73.5986C249.503 73.3708 249.47 73.0778 249.438 72.7197C249.438 72.3291 249.47 71.8083 249.535 71.1572C249.079 71.7106 248.721 72.3617 248.461 73.1104C248.233 73.859 248.054 74.5752 247.924 75.2588C247.794 76.0726 247.696 76.8864 247.631 77.7002C247.598 78.5791 247.631 79.4417 247.729 80.2881C247.859 81.1344 248.054 81.8831 248.314 82.5342C248.607 83.1852 248.949 83.7061 249.34 84.0967C249.73 84.4873 250.202 84.6663 250.756 84.6338C251.309 84.6012 251.798 84.3734 252.221 83.9502C252.644 83.527 253.018 82.9899 253.344 82.3389C253.669 81.6878 253.93 80.9554 254.125 80.1416C254.32 79.3278 254.451 78.5303 254.516 77.749ZM265.551 85.415C265.518 85.6104 265.339 85.8219 265.014 86.0498C264.721 86.2451 264.363 86.4242 263.939 86.5869C263.549 86.7497 263.174 86.8473 262.816 86.8799C262.458 86.945 262.214 86.9124 262.084 86.7822C261.954 86.652 261.742 86.4079 261.449 86.0498C261.156 85.6917 260.977 85.1058 260.912 84.292C260.847 83.4456 260.814 82.3877 260.814 81.1182C260.814 79.8161 260.798 78.3838 260.766 76.8213V74.8682C260.766 74.2822 260.749 73.5986 260.717 72.8174C260.717 72.0361 260.701 71.2223 260.668 70.376C260.961 70.2132 261.254 70.0667 261.547 69.9365C261.872 69.7738 262.165 69.6436 262.426 69.5459C262.719 69.4157 262.995 69.318 263.256 69.2529C263.939 69.0576 264.46 68.9437 264.818 68.9111C265.176 68.8786 265.388 68.9925 265.453 69.2529C265.486 69.4482 265.469 69.9202 265.404 70.6689C265.339 71.32 265.258 72.3128 265.16 73.6475C265.062 74.9495 264.9 76.7725 264.672 79.1162C265.095 78.0745 265.437 77.1794 265.697 76.4307C265.99 75.682 266.234 75.0798 266.43 74.624C266.625 74.0706 266.804 73.6312 266.967 73.3057C267.13 72.8825 267.341 72.4105 267.602 71.8896C267.862 71.3688 268.122 70.8805 268.383 70.4248C268.676 69.9691 268.936 69.5622 269.164 69.2041C269.424 68.846 269.62 68.6344 269.75 68.5693C269.848 68.5042 270.141 68.5042 270.629 68.5693C271.117 68.6344 271.638 68.7972 272.191 69.0576C272.745 69.2855 273.282 69.6273 273.803 70.083C274.324 70.5062 274.665 71.027 274.828 71.6455C275.023 72.3617 275.089 73.3057 275.023 74.4775C274.991 75.6494 274.91 76.8538 274.779 78.0908C274.682 79.3278 274.6 80.4997 274.535 81.6064C274.47 82.7132 274.535 83.5596 274.73 84.1455C274.796 84.471 274.893 84.764 275.023 85.0244C275.089 85.2848 275.17 85.529 275.268 85.7568C275.398 85.9521 275.528 86.0986 275.658 86.1963C274.877 86.5544 274.242 86.8148 273.754 86.9775C273.266 87.1403 272.891 87.2542 272.631 87.3193C272.305 87.417 272.077 87.4495 271.947 87.417C271.654 87.3193 271.394 87.0752 271.166 86.6846C270.971 86.2939 270.792 85.6755 270.629 84.8291C270.564 84.5687 270.531 84.1455 270.531 83.5596C270.564 82.9411 270.613 82.2575 270.678 81.5088C270.743 80.7275 270.808 79.93 270.873 79.1162C270.971 78.2699 271.036 77.4886 271.068 76.7725C271.133 76.0238 271.182 75.389 271.215 74.8682C271.247 74.3148 271.247 73.9404 271.215 73.7451C271.052 73.1592 270.824 72.7523 270.531 72.5244C270.238 72.264 270.01 72.2314 269.848 72.4268C269.424 72.915 268.969 73.7126 268.48 74.8193C268.025 75.8936 267.585 77.0817 267.162 78.3838C266.739 79.6533 266.381 80.9229 266.088 82.1924C265.795 83.4619 265.616 84.5361 265.551 85.415Z" fill="#131A22"/>
<path d="M27.8223 41.1714C26.416 41.1714 25.14 40.8198 23.9941 40.1167C22.8483 39.4396 21.8717 38.5021 21.0645 37.3042C20.2832 36.1063 19.6712 34.7 19.2285 33.0854C18.8118 31.4709 18.6035 29.7261 18.6035 27.8511C18.6035 25.1688 18.916 22.7729 19.541 20.6636C20.166 18.5542 20.9863 16.7703 22.002 15.312C23.0436 13.8537 24.2155 12.7339 25.5176 11.9526C26.8457 11.1714 28.1999 10.7808 29.5801 10.7808C30.8822 10.7808 31.9759 11.0151 32.8613 11.4839C33.7467 11.9526 34.4499 12.5516 34.9707 13.2808C35.5176 14.0099 35.8822 14.8172 36.0645 15.7026C36.2728 16.562 36.3379 17.3823 36.2598 18.1636C36.1296 19.674 35.6087 20.8979 34.6973 21.8354C33.8118 22.7729 32.7832 23.2417 31.6113 23.2417C31.2207 23.2157 30.8171 23.1506 30.4004 23.0464C30.0358 22.9422 29.6582 22.786 29.2676 22.5776C28.877 22.3693 28.5124 22.0698 28.1738 21.6792C29.2676 21.7573 30.1139 21.536 30.7129 21.0151C31.3118 20.4943 31.7546 19.9084 32.041 19.2573C32.3535 18.5021 32.5358 17.6167 32.5879 16.6011C32.5879 16.0282 32.4967 15.5334 32.3145 15.1167C32.1322 14.674 31.8848 14.3224 31.5723 14.062C31.2858 13.7756 30.9733 13.5672 30.6348 13.437C30.2962 13.3068 29.9707 13.2417 29.6582 13.2417C28.9551 13.2417 28.1868 13.5151 27.3535 14.062C26.5462 14.6089 25.778 15.4422 25.0488 16.562C24.3197 17.6558 23.7077 19.062 23.2129 20.7808C22.7441 22.4735 22.5098 24.4917 22.5098 26.8354C22.5098 29.1532 22.7181 31.0542 23.1348 32.5386C23.5514 33.9969 24.0592 35.1427 24.6582 35.9761C25.2572 36.7834 25.8822 37.3433 26.5332 37.6558C27.2103 37.9422 27.7832 38.0854 28.252 38.0854C29.1634 38.0073 29.9967 37.6948 30.752 37.1479C31.403 36.6792 32.015 35.937 32.5879 34.9214C33.1868 33.8797 33.5905 32.3953 33.7988 30.4683C34.1374 30.4943 34.4108 30.5724 34.6191 30.7026C34.8535 30.8328 35.0488 30.9631 35.2051 31.0933C35.3613 31.2495 35.5046 31.4318 35.6348 31.6401C35.6608 31.6662 35.6608 31.9266 35.6348 32.4214C35.6087 32.9162 35.5176 33.5151 35.3613 34.2183C35.2051 34.9214 34.9577 35.6766 34.6191 36.4839C34.3066 37.2912 33.8509 38.0464 33.252 38.7495C32.679 39.4526 31.9499 40.0256 31.0645 40.4683C30.179 40.937 29.0983 41.1714 27.8223 41.1714ZM49.1113 31.0151C49.0592 32.0308 48.877 32.9683 48.5645 33.8276C48.278 34.687 47.8743 35.4422 47.3535 36.0933C46.8327 36.7183 46.2077 37.2131 45.4785 37.5776C44.7754 37.9422 43.9941 38.1375 43.1348 38.1636C42.3796 38.1896 41.6634 38.0073 40.9863 37.6167C40.3353 37.2261 39.7624 36.6792 39.2676 35.9761C38.7728 35.2729 38.3952 34.4396 38.1348 33.4761C37.9004 32.4865 37.8353 31.4188 37.9395 30.2729C38.0176 28.9448 38.265 27.812 38.6816 26.8745C39.0983 25.911 39.541 25.1167 40.0098 24.4917C40.4785 23.8667 40.9082 23.411 41.2988 23.1245C41.7155 22.812 41.9759 22.6297 42.0801 22.5776C42.2624 22.4995 42.4316 22.4865 42.5879 22.5386C42.7441 22.5646 42.9134 22.6037 43.0957 22.6558C43.1478 22.6818 43.1999 22.7469 43.252 22.8511C43.3561 23.0334 43.4212 23.3719 43.4473 23.8667C43.5775 23.5802 43.7467 23.3459 43.9551 23.1636C44.1634 22.9813 44.3717 22.8511 44.5801 22.7729C44.8405 22.6688 45.1009 22.6037 45.3613 22.5776C45.5436 22.5516 45.8561 22.6948 46.2988 23.0073C46.7676 23.3198 47.2103 23.8146 47.627 24.4917C48.0697 25.1688 48.4473 26.0542 48.7598 27.1479C49.0723 28.2157 49.1895 29.5047 49.1113 31.0151ZM46.4551 30.5464C46.4811 29.9214 46.4551 29.2964 46.377 28.6714C46.3249 28.0203 46.2207 27.4344 46.0645 26.9136C45.9342 26.3667 45.765 25.937 45.5566 25.6245C45.3483 25.286 45.14 25.1167 44.9316 25.1167C44.6973 25.1688 44.4368 25.286 44.1504 25.4683C43.916 25.6245 43.6556 25.8719 43.3691 26.2104C43.0827 26.549 42.8092 27.0308 42.5488 27.6558C42.5228 27.5776 42.4967 27.4344 42.4707 27.2261C42.4447 27.0438 42.4186 26.8094 42.3926 26.5229C42.3926 26.2104 42.4186 25.7938 42.4707 25.2729C42.1061 25.7157 41.8197 26.2365 41.6113 26.8354C41.429 27.4344 41.2858 28.0073 41.1816 28.5542C41.0775 29.2052 40.9993 29.8563 40.9473 30.5073C40.9212 31.2104 40.9473 31.9006 41.0254 32.5776C41.1296 33.2547 41.2858 33.8537 41.4941 34.3745C41.7285 34.8953 42.002 35.312 42.3145 35.6245C42.627 35.937 43.0046 36.0802 43.4473 36.0542C43.89 36.0282 44.2806 35.8459 44.6191 35.5073C44.9577 35.1688 45.2572 34.7391 45.5176 34.2183C45.778 33.6974 45.9863 33.1115 46.1426 32.4604C46.2988 31.8094 46.403 31.1714 46.4551 30.5464ZM55.2832 36.6792C55.2572 36.8354 55.1139 37.0047 54.8535 37.187C54.6191 37.3433 54.3327 37.4865 53.9941 37.6167C53.6816 37.7469 53.3822 37.825 53.0957 37.8511C52.8092 37.9032 52.6139 37.8771 52.5098 37.7729C52.4056 37.6688 52.2363 37.4735 52.002 37.187C51.7676 36.9006 51.6243 36.4318 51.5723 35.7808C51.5202 35.1037 51.4941 34.2573 51.4941 33.2417C51.4941 32.2 51.4811 31.0542 51.4551 29.8042V28.2417C51.4551 27.7729 51.4421 27.2261 51.416 26.6011C51.416 25.9761 51.403 25.325 51.377 24.6479C51.6113 24.5177 51.8457 24.4006 52.0801 24.2964C52.3405 24.1662 52.5749 24.062 52.7832 23.9839C53.0176 23.8797 53.2389 23.8016 53.4473 23.7495C53.9941 23.5933 54.4108 23.5021 54.6973 23.4761C54.9837 23.45 55.153 23.5412 55.2051 23.7495C55.2311 23.9058 55.2181 24.2834 55.166 24.8823C55.1139 25.4032 55.0488 26.1974 54.9707 27.2651C54.8926 28.3068 54.7624 29.7651 54.5801 31.6401C54.9186 30.8068 55.1921 30.0907 55.4004 29.4917C55.6348 28.8927 55.8301 28.411 55.9863 28.0464C56.1426 27.6037 56.2858 27.2521 56.416 26.9917C56.5462 26.6532 56.7155 26.2756 56.9238 25.8589C57.1322 25.4422 57.3405 25.0516 57.5488 24.687C57.7832 24.3224 57.9915 23.9969 58.1738 23.7104C58.3822 23.424 58.5384 23.2547 58.6426 23.2026C58.7207 23.1506 58.9551 23.1506 59.3457 23.2026C59.7363 23.2547 60.153 23.3849 60.5957 23.5933C61.0384 23.7756 61.4681 24.049 61.8848 24.4136C62.3014 24.7521 62.5749 25.1688 62.7051 25.6636C62.8613 26.2365 62.9134 26.9917 62.8613 27.9292C62.8353 28.8667 62.7702 29.8302 62.666 30.8198C62.5879 31.8094 62.5228 32.7469 62.4707 33.6323C62.4186 34.5177 62.4707 35.1948 62.627 35.6636C62.679 35.924 62.7572 36.1584 62.8613 36.3667C62.9134 36.575 62.9785 36.7703 63.0566 36.9526C63.1608 37.1089 63.265 37.2261 63.3691 37.3042C62.7441 37.5907 62.2363 37.799 61.8457 37.9292C61.4551 38.0594 61.1556 38.1506 60.9473 38.2026C60.6868 38.2808 60.5046 38.3068 60.4004 38.2808C60.166 38.2026 59.9577 38.0073 59.7754 37.6948C59.6191 37.3823 59.4759 36.8875 59.3457 36.2104C59.2936 36.0021 59.2676 35.6636 59.2676 35.1948C59.2936 34.7 59.3327 34.1532 59.3848 33.5542C59.4368 32.9292 59.4889 32.2912 59.541 31.6401C59.6191 30.9631 59.6712 30.3381 59.6973 29.7651C59.7493 29.1662 59.7884 28.6584 59.8145 28.2417C59.8405 27.799 59.8405 27.4995 59.8145 27.3433C59.6842 26.8745 59.502 26.549 59.2676 26.3667C59.0332 26.1584 58.8509 26.1323 58.7207 26.2886C58.3822 26.6792 58.0176 27.3172 57.627 28.2026C57.2624 29.062 56.9108 30.0125 56.5723 31.0542C56.2337 32.0698 55.9473 33.0854 55.7129 34.1011C55.4785 35.1167 55.3353 35.9761 55.2832 36.6792ZM69.6973 36.6792C69.6712 36.8354 69.528 37.0047 69.2676 37.187C69.0332 37.3433 68.7467 37.4865 68.4082 37.6167C68.0957 37.7469 67.7962 37.825 67.5098 37.8511C67.2233 37.9032 67.028 37.8771 66.9238 37.7729C66.8197 37.6688 66.6504 37.4735 66.416 37.187C66.1816 36.9006 66.0384 36.4318 65.9863 35.7808C65.9342 35.1037 65.9082 34.2573 65.9082 33.2417C65.9082 32.2 65.8952 31.0542 65.8691 29.8042V28.2417C65.8691 27.7729 65.8561 27.2261 65.8301 26.6011C65.8301 25.9761 65.8171 25.325 65.791 24.6479C66.0254 24.5177 66.2598 24.4006 66.4941 24.2964C66.7546 24.1662 66.9889 24.062 67.1973 23.9839C67.4316 23.8797 67.653 23.8016 67.8613 23.7495C68.4082 23.5933 68.8249 23.5021 69.1113 23.4761C69.3978 23.45 69.5671 23.5412 69.6191 23.7495C69.6452 23.9058 69.6322 24.2834 69.5801 24.8823C69.528 25.4032 69.4629 26.1974 69.3848 27.2651C69.3066 28.3068 69.1764 29.7651 68.9941 31.6401C69.3327 30.8068 69.6061 30.0907 69.8145 29.4917C70.0488 28.8927 70.2441 28.411 70.4004 28.0464C70.5566 27.6037 70.6999 27.2521 70.8301 26.9917C70.9603 26.6532 71.1296 26.2756 71.3379 25.8589C71.5462 25.4422 71.7546 25.0516 71.9629 24.687C72.1973 24.3224 72.4056 23.9969 72.5879 23.7104C72.7962 23.424 72.9525 23.2547 73.0566 23.2026C73.1348 23.1506 73.3691 23.1506 73.7598 23.2026C74.1504 23.2547 74.5671 23.3849 75.0098 23.5933C75.4525 23.7756 75.8822 24.049 76.2988 24.4136C76.7155 24.7521 76.9889 25.1688 77.1191 25.6636C77.2754 26.2365 77.3275 26.9917 77.2754 27.9292C77.2493 28.8667 77.1842 29.8302 77.0801 30.8198C77.002 31.8094 76.9368 32.7469 76.8848 33.6323C76.8327 34.5177 76.8848 35.1948 77.041 35.6636C77.0931 35.924 77.1712 36.1584 77.2754 36.3667C77.3275 36.575 77.3926 36.7703 77.4707 36.9526C77.5749 37.1089 77.679 37.2261 77.7832 37.3042C77.1582 37.5907 76.6504 37.799 76.2598 37.9292C75.8691 38.0594 75.5697 38.1506 75.3613 38.2026C75.1009 38.2808 74.9186 38.3068 74.8145 38.2808C74.5801 38.2026 74.3717 38.0073 74.1895 37.6948C74.0332 37.3823 73.89 36.8875 73.7598 36.2104C73.7077 36.0021 73.6816 35.6636 73.6816 35.1948C73.7077 34.7 73.7467 34.1532 73.7988 33.5542C73.8509 32.9292 73.903 32.2912 73.9551 31.6401C74.0332 30.9631 74.0853 30.3381 74.1113 29.7651C74.1634 29.1662 74.2025 28.6584 74.2285 28.2417C74.2546 27.799 74.2546 27.4995 74.2285 27.3433C74.0983 26.8745 73.916 26.549 73.6816 26.3667C73.4473 26.1584 73.265 26.1323 73.1348 26.2886C72.7962 26.6792 72.4316 27.3172 72.041 28.2026C71.6764 29.062 71.3249 30.0125 70.9863 31.0542C70.6478 32.0698 70.3613 33.0854 70.127 34.1011C69.8926 35.1167 69.7493 35.9761 69.6973 36.6792ZM85.2832 38.1636C83.4603 38.1636 82.054 37.5516 81.0645 36.3276C80.0749 35.1037 79.5801 33.5021 79.5801 31.5229C79.5801 30.1427 79.7754 28.8537 80.166 27.6558C80.5827 26.4318 81.1296 25.3771 81.8066 24.4917C82.4837 23.6063 83.265 22.9162 84.1504 22.4214C85.0618 21.9006 86.0124 21.6401 87.002 21.6401C87.9655 21.6401 88.7858 21.9917 89.4629 22.6948C90.14 23.3719 90.4785 24.3485 90.4785 25.6245C90.4785 26.4578 90.2962 27.2912 89.9316 28.1245C89.5671 28.9318 89.0853 29.661 88.4863 30.312C87.9134 30.937 87.2754 31.4448 86.5723 31.8354C85.8691 32.2261 85.1921 32.4214 84.541 32.4214C84.1243 32.4214 83.7728 32.3693 83.4863 32.2651C83.1999 32.161 82.9395 32.0047 82.7051 31.7964C82.7832 33.2808 83.1087 34.3224 83.6816 34.9214C84.2546 35.4943 84.9967 35.7808 85.9082 35.7808C86.5332 35.7808 87.0801 35.6506 87.5488 35.3901C88.0436 35.1297 88.4603 34.8302 88.7988 34.4917C89.1374 34.1532 89.4108 33.8146 89.6191 33.4761C89.8275 33.1115 89.9707 32.8381 90.0488 32.6558C90.127 32.4995 90.2572 32.4214 90.4395 32.4214C90.6478 32.4214 90.752 32.5776 90.752 32.8901C90.752 33.1766 90.6478 33.6193 90.4395 34.2183C90.2572 34.7912 89.9447 35.3771 89.502 35.9761C89.0592 36.549 88.4863 37.0568 87.7832 37.4995C87.1061 37.9422 86.2728 38.1636 85.2832 38.1636ZM87.0801 23.3198C86.9238 23.3198 86.6243 23.4891 86.1816 23.8276C85.765 24.1401 85.3092 24.6089 84.8145 25.2339C84.3457 25.8589 83.903 26.6141 83.4863 27.4995C83.0957 28.3589 82.8483 29.3354 82.7441 30.4292C84.3066 30.0646 85.5436 29.4917 86.4551 28.7104C87.3665 27.9292 87.8223 26.7834 87.8223 25.2729C87.8223 24.5177 87.7311 24.0099 87.5488 23.7495C87.3665 23.4631 87.2103 23.3198 87.0801 23.3198ZM103.721 32.812C103.721 33.0985 103.617 33.5412 103.408 34.1401C103.226 34.7131 102.913 35.299 102.471 35.8979C102.028 36.4709 101.455 36.9787 100.752 37.4214C100.075 37.8641 99.2415 38.0854 98.252 38.0854C96.8457 38.0854 95.6608 37.7078 94.6973 36.9526C93.7598 36.1714 93.0957 35.0646 92.7051 33.6323C92.3926 32.4344 92.3014 31.1584 92.4316 29.8042C92.5879 28.424 92.9655 27.1479 93.5645 25.9761C94.1634 24.8042 94.9967 23.8146 96.0645 23.0073C97.1322 22.174 98.4342 21.7183 99.9707 21.6401C100.752 21.6141 101.403 21.7573 101.924 22.0698C102.445 22.3823 102.848 22.786 103.135 23.2808C103.421 23.7756 103.59 24.3224 103.643 24.9214C103.695 25.4943 103.63 26.0412 103.447 26.562C103.291 27.0828 103.031 27.5256 102.666 27.8901C102.327 28.2287 101.885 28.411 101.338 28.437C100.791 28.4891 100.335 28.424 99.9707 28.2417C99.6322 28.0334 99.3587 27.786 99.1504 27.4995C98.9681 27.2131 98.8379 26.9136 98.7598 26.6011C98.7077 26.2886 98.7077 26.0151 98.7598 25.7808C98.8379 25.4422 98.9681 25.1297 99.1504 24.8433C99.3066 24.5828 99.528 24.3224 99.8145 24.062C100.127 23.8016 100.531 23.5933 101.025 23.437C100.947 23.3849 100.869 23.3589 100.791 23.3589C100.713 23.3589 100.635 23.3459 100.557 23.3198C100.452 23.3198 100.374 23.3068 100.322 23.2808C99.9056 23.2808 99.4238 23.424 98.877 23.7104C98.3561 23.9969 97.8483 24.4526 97.3535 25.0776C96.8848 25.7026 96.4811 26.5099 96.1426 27.4995C95.8301 28.4631 95.6738 29.6349 95.6738 31.0151C95.6738 31.6141 95.7389 32.2131 95.8691 32.812C95.9993 33.3849 96.1947 33.9058 96.4551 34.3745C96.7415 34.8172 97.0801 35.1818 97.4707 35.4683C97.8874 35.7287 98.3691 35.8589 98.916 35.8589C99.541 35.8589 100.088 35.7287 100.557 35.4683C101.051 35.1818 101.468 34.8563 101.807 34.4917C102.145 34.1271 102.406 33.7625 102.588 33.3979C102.796 33.0334 102.939 32.7599 103.018 32.5776C103.096 32.4214 103.226 32.3433 103.408 32.3433C103.617 32.3433 103.721 32.4995 103.721 32.812ZM120.674 20.3511C120.387 20.299 119.997 20.2469 119.502 20.1948C119.033 20.1427 118.551 20.1037 118.057 20.0776C117.484 20.0516 116.872 20.0386 116.221 20.0386C115.57 19.9865 114.749 19.9865 113.76 20.0386C112.796 20.0646 111.781 20.0776 110.713 20.0776C110.687 20.7547 110.635 21.4448 110.557 22.1479C110.505 22.8511 110.452 23.5412 110.4 24.2183C110.27 25.4683 110.153 26.7443 110.049 28.0464C109.971 29.3485 109.932 30.5854 109.932 31.7573C109.932 32.9292 109.997 33.9969 110.127 34.9604C110.283 35.8979 110.557 36.6401 110.947 37.187C110.635 37.4214 110.296 37.6037 109.932 37.7339C109.567 37.8381 109.242 37.9162 108.955 37.9683C108.617 38.0464 108.278 38.0854 107.939 38.0854C107.627 38.0854 107.367 37.9813 107.158 37.7729C106.95 37.5646 106.833 37.2 106.807 36.6792C106.755 35.7938 106.742 34.9084 106.768 34.0229C106.82 33.1115 106.872 32.161 106.924 31.1714C107.002 30.1818 107.08 29.1271 107.158 28.0073C107.236 26.8615 107.314 25.6115 107.393 24.2573C107.471 22.8511 107.51 21.4839 107.51 20.1558C106.52 20.1818 105.687 20.1948 105.01 20.1948C104.333 20.1948 103.955 20.1818 103.877 20.1558C103.799 20.1037 103.708 19.9865 103.604 19.8042C103.499 19.6479 103.369 19.4136 103.213 19.1011C103.031 18.7886 102.809 18.3459 102.549 17.7729C103.044 17.7729 103.59 17.7729 104.189 17.7729C104.762 17.7729 105.296 17.7599 105.791 17.7339C106.364 17.7078 106.937 17.6818 107.51 17.6558C107.484 17.2391 107.471 16.7964 107.471 16.3276C107.445 15.9631 107.432 15.5594 107.432 15.1167C107.432 14.6479 107.419 14.2183 107.393 13.8276C107.393 13.6714 107.575 13.4891 107.939 13.2808C108.33 13.0464 108.747 12.8381 109.189 12.6558C109.632 12.4735 110.036 12.3563 110.4 12.3042C110.791 12.2521 110.986 12.3433 110.986 12.5776C110.986 12.812 110.973 13.3849 110.947 14.2964C110.947 15.1818 110.921 16.2625 110.869 17.5386C111.13 17.5386 111.325 17.5256 111.455 17.4995C112.835 17.4474 113.942 17.3953 114.775 17.3433C115.635 17.2651 116.338 17.2521 116.885 17.3042C117.432 17.3563 117.913 17.4865 118.33 17.6948C118.747 17.9032 119.215 18.2417 119.736 18.7104C119.919 18.8667 120.075 19.036 120.205 19.2183C120.335 19.3745 120.439 19.5568 120.518 19.7651C120.622 19.9474 120.674 20.1427 120.674 20.3511ZM114.346 23.9058C114.346 23.7495 114.554 23.5802 114.971 23.3979C115.387 23.2157 115.843 23.0724 116.338 22.9683C116.859 22.8381 117.327 22.7729 117.744 22.7729C118.187 22.7469 118.408 22.8381 118.408 23.0464C118.408 23.437 118.382 23.9969 118.33 24.7261C118.278 25.4292 118.213 26.1844 118.135 26.9917C118.057 27.7729 117.979 28.5672 117.9 29.3745C117.822 30.1558 117.77 30.8198 117.744 31.3667C117.692 31.9396 117.64 32.5646 117.588 33.2417C117.536 33.8146 117.497 34.4526 117.471 35.1558C117.445 35.8589 117.445 36.575 117.471 37.3042C117.471 37.4344 117.34 37.5646 117.08 37.6948C116.82 37.825 116.533 37.9162 116.221 37.9683C115.908 38.0464 115.609 38.0854 115.322 38.0854C115.036 38.0854 114.88 38.0334 114.854 37.9292C114.801 37.825 114.749 37.6427 114.697 37.3823C114.645 37.1219 114.593 36.7573 114.541 36.2886C114.489 35.7938 114.45 35.1688 114.424 34.4136C114.398 33.6323 114.411 32.6948 114.463 31.6011C114.567 29.4396 114.58 27.7729 114.502 26.6011C114.424 25.4032 114.372 24.5047 114.346 23.9058ZM117.08 16.1323C117.601 16.1323 118.096 16.2886 118.564 16.6011C119.033 16.9136 119.268 17.3302 119.268 17.8511C119.268 18.2417 119.163 18.6193 118.955 18.9839C118.773 19.3485 118.538 19.674 118.252 19.9604C117.965 20.2469 117.64 20.4813 117.275 20.6636C116.911 20.8198 116.572 20.8979 116.26 20.8979C115.843 20.8979 115.505 20.8328 115.244 20.7026C114.984 20.5464 114.775 20.3771 114.619 20.1948C114.489 19.9865 114.398 19.7651 114.346 19.5308C114.294 19.2964 114.268 19.075 114.268 18.8667C114.268 18.6063 114.307 18.3198 114.385 18.0073C114.463 17.6688 114.606 17.3693 114.814 17.1089C115.023 16.8224 115.309 16.5881 115.674 16.4058C116.038 16.2235 116.507 16.1323 117.08 16.1323ZM116.104 19.7651C116.26 19.7651 116.429 19.7131 116.611 19.6089C116.82 19.4787 117.002 19.3354 117.158 19.1792C117.34 19.0229 117.484 18.8537 117.588 18.6714C117.718 18.4891 117.783 18.3328 117.783 18.2026C117.783 17.9943 117.679 17.8901 117.471 17.8901C117.34 17.8901 117.171 17.9422 116.963 18.0464C116.781 18.1506 116.598 18.2808 116.416 18.437C116.234 18.5672 116.077 18.7235 115.947 18.9058C115.843 19.062 115.791 19.2183 115.791 19.3745C115.791 19.6349 115.895 19.7651 116.104 19.7651ZM125.166 36.6792C125.14 36.8354 124.997 37.0047 124.736 37.187C124.502 37.3433 124.215 37.4865 123.877 37.6167C123.564 37.7469 123.265 37.825 122.979 37.8511C122.692 37.9032 122.497 37.8771 122.393 37.7729C122.288 37.6688 122.119 37.4735 121.885 37.187C121.65 36.9006 121.507 36.4318 121.455 35.7808C121.403 35.1037 121.377 34.2573 121.377 33.2417C121.377 32.2 121.364 31.0542 121.338 29.8042V28.2417C121.338 27.7729 121.325 27.2261 121.299 26.6011C121.299 25.9761 121.286 25.325 121.26 24.6479C121.494 24.5177 121.729 24.4006 121.963 24.2964C122.223 24.1662 122.458 24.062 122.666 23.9839C122.9 23.8797 123.122 23.8016 123.33 23.7495C123.877 23.5933 124.294 23.5021 124.58 23.4761C124.867 23.45 125.036 23.5412 125.088 23.7495C125.114 23.9058 125.101 24.2834 125.049 24.8823C124.997 25.4032 124.932 26.1974 124.854 27.2651C124.775 28.3068 124.645 29.7651 124.463 31.6401C124.801 30.8068 125.075 30.0907 125.283 29.4917C125.518 28.8927 125.713 28.411 125.869 28.0464C126.025 27.6037 126.169 27.2521 126.299 26.9917C126.429 26.6532 126.598 26.2756 126.807 25.8589C127.015 25.4422 127.223 25.0516 127.432 24.687C127.666 24.3224 127.874 23.9969 128.057 23.7104C128.265 23.424 128.421 23.2547 128.525 23.2026C128.604 23.1506 128.838 23.1506 129.229 23.2026C129.619 23.2547 130.036 23.3849 130.479 23.5933C130.921 23.7756 131.351 24.049 131.768 24.4136C132.184 24.7521 132.458 25.1688 132.588 25.6636C132.744 26.2365 132.796 26.9917 132.744 27.9292C132.718 28.8667 132.653 29.8302 132.549 30.8198C132.471 31.8094 132.406 32.7469 132.354 33.6323C132.301 34.5177 132.354 35.1948 132.51 35.6636C132.562 35.924 132.64 36.1584 132.744 36.3667C132.796 36.575 132.861 36.7703 132.939 36.9526C133.044 37.1089 133.148 37.2261 133.252 37.3042C132.627 37.5907 132.119 37.799 131.729 37.9292C131.338 38.0594 131.038 38.1506 130.83 38.2026C130.57 38.2808 130.387 38.3068 130.283 38.2808C130.049 38.2026 129.84 38.0073 129.658 37.6948C129.502 37.3823 129.359 36.8875 129.229 36.2104C129.176 36.0021 129.15 35.6636 129.15 35.1948C129.176 34.7 129.215 34.1532 129.268 33.5542C129.32 32.9292 129.372 32.2912 129.424 31.6401C129.502 30.9631 129.554 30.3381 129.58 29.7651C129.632 29.1662 129.671 28.6584 129.697 28.2417C129.723 27.799 129.723 27.4995 129.697 27.3433C129.567 26.8745 129.385 26.549 129.15 26.3667C128.916 26.1584 128.734 26.1323 128.604 26.2886C128.265 26.6792 127.9 27.3172 127.51 28.2026C127.145 29.062 126.794 30.0125 126.455 31.0542C126.117 32.0698 125.83 33.0854 125.596 34.1011C125.361 35.1167 125.218 35.9761 125.166 36.6792ZM139.814 38.0854C139.268 38.0854 138.708 37.9422 138.135 37.6558C137.562 37.3693 137.028 36.9396 136.533 36.3667C136.038 35.7677 135.635 35.0386 135.322 34.1792C135.01 33.2938 134.854 32.2651 134.854 31.0933C134.854 29.3745 135.075 27.9552 135.518 26.8354C135.96 25.6896 136.494 24.7782 137.119 24.1011C137.77 23.3979 138.473 22.9032 139.229 22.6167C139.984 22.3302 140.674 22.187 141.299 22.187C141.95 22.187 142.484 22.3042 142.9 22.5386C143.343 22.7469 143.708 22.9943 143.994 23.2808V22.5386C144.15 22.4084 144.32 22.2912 144.502 22.187C144.71 22.0828 144.919 22.0047 145.127 21.9526C145.335 21.8745 145.557 21.8354 145.791 21.8354H146.377C146.533 21.8615 146.689 21.8875 146.846 21.9136C147.028 21.9396 147.158 22.0047 147.236 22.1089C147.08 25.5203 146.95 28.2808 146.846 30.3901C146.742 32.4995 146.663 34.1401 146.611 35.312C146.533 36.6922 146.481 37.6948 146.455 38.3198C146.403 39.4136 146.26 40.4943 146.025 41.562C145.791 42.6558 145.426 43.6323 144.932 44.4917C144.437 45.3511 143.786 46.0412 142.979 46.562C142.171 47.0828 141.182 47.3433 140.01 47.3433C138.994 47.3433 138.174 47.1479 137.549 46.7573C136.95 46.3667 136.481 45.8849 136.143 45.312C135.83 44.7391 135.622 44.1271 135.518 43.4761C135.413 42.8511 135.361 42.2782 135.361 41.7573C135.361 41.6271 135.426 41.4318 135.557 41.1714C135.713 40.911 135.921 40.6375 136.182 40.3511C136.468 40.0907 136.82 39.8563 137.236 39.6479C137.653 39.4396 138.122 39.3094 138.643 39.2573C138.408 39.9604 138.265 40.5985 138.213 41.1714C138.161 41.4839 138.148 41.7964 138.174 42.1089C138.174 42.9683 138.343 43.6844 138.682 44.2573C139.02 44.8302 139.541 45.1167 140.244 45.1167C140.999 45.1167 141.611 44.7912 142.08 44.1401C142.549 43.5151 142.9 42.7469 143.135 41.8354C143.395 40.95 143.564 40.0125 143.643 39.0229C143.747 38.0594 143.799 37.2391 143.799 36.562V35.4292C143.643 35.7157 143.447 36.0151 143.213 36.3276C143.005 36.6401 142.744 36.9266 142.432 37.187C142.119 37.4474 141.742 37.6558 141.299 37.812C140.882 37.9943 140.387 38.0854 139.814 38.0854ZM141.416 24.4136C140.973 24.4136 140.544 24.6089 140.127 24.9995C139.736 25.3901 139.385 25.911 139.072 26.562C138.76 27.187 138.512 27.9032 138.33 28.7104C138.148 29.5177 138.057 30.325 138.057 31.1323C138.057 31.6532 138.083 32.187 138.135 32.7339C138.213 33.2808 138.343 33.7886 138.525 34.2573C138.734 34.7 138.994 35.0646 139.307 35.3511C139.619 35.6375 140.036 35.7808 140.557 35.7808C140.947 35.7547 141.312 35.5985 141.65 35.312C141.937 35.0776 142.223 34.7 142.51 34.1792C142.822 33.6584 143.07 32.9162 143.252 31.9526C143.46 32.161 143.617 32.3563 143.721 32.5386C143.851 32.7209 143.955 32.8901 144.033 33.0464C144.059 32.8381 144.072 32.5907 144.072 32.3042C144.098 32.0177 144.111 31.6922 144.111 31.3276C144.111 30.6245 144.072 29.8693 143.994 29.062C143.916 28.2287 143.773 27.4735 143.564 26.7964C143.382 26.1193 143.109 25.5594 142.744 25.1167C142.406 24.6479 141.963 24.4136 141.416 24.4136ZM174.307 34.9604C172.093 34.9604 170.335 33.9839 169.033 32.0308C167.757 30.0776 166.976 27.2912 166.689 23.6714C166.585 22.4214 166.572 21.1844 166.65 19.9604C166.729 18.7365 166.859 17.6167 167.041 16.6011C167.223 15.5854 167.445 14.7131 167.705 13.9839C167.965 13.2547 168.226 12.7599 168.486 12.4995C168.747 12.2391 169.046 12.0047 169.385 11.7964C169.723 11.5881 170.049 11.4318 170.361 11.3276C170.7 11.1974 171.012 11.1453 171.299 11.1714C171.585 11.1714 171.82 11.2495 172.002 11.4058C171.455 13.1245 171.038 14.8302 170.752 16.5229C170.465 18.1896 170.296 19.7782 170.244 21.2886C170.218 22.799 170.283 24.2052 170.439 25.5073C170.622 26.8094 170.895 27.9292 171.26 28.8667C171.624 29.8042 172.08 30.5464 172.627 31.0933C173.174 31.6141 173.799 31.8745 174.502 31.8745C175.726 31.8745 176.65 31.3407 177.275 30.2729C177.926 29.2052 178.382 27.8381 178.643 26.1714C178.903 24.5047 179.033 22.6558 179.033 20.6245C179.033 18.5933 179.02 16.6011 178.994 14.6479C178.968 13.7104 179.033 12.9943 179.189 12.4995C179.372 11.9787 179.749 11.6141 180.322 11.4058C180.531 11.3276 180.739 11.2625 180.947 11.2104C181.364 11.1063 181.702 11.1323 181.963 11.2886C182.171 12.1219 182.327 13.1636 182.432 14.4136C182.562 15.6375 182.653 16.8485 182.705 18.0464C182.783 19.4526 182.822 20.8979 182.822 22.3823C182.874 22.9032 182.926 23.6193 182.979 24.5308C183.057 25.4422 183.096 26.4578 183.096 27.5776C183.096 28.6974 183.057 29.8953 182.979 31.1714C182.9 32.4214 182.744 33.6714 182.51 34.9214C182.275 36.1453 181.95 37.3172 181.533 38.437C181.117 39.5828 180.557 40.5854 179.854 41.4448C179.15 42.3302 178.304 43.0203 177.314 43.5151C176.325 44.036 175.153 44.2964 173.799 44.2964C172.705 44.2964 171.742 43.9969 170.908 43.3979C170.075 42.799 169.398 42.1089 168.877 41.3276C168.382 40.5724 168.044 39.8433 167.861 39.1401C167.705 38.437 167.744 37.9683 167.979 37.7339L169.932 35.9761C170.192 37.2521 170.557 38.2287 171.025 38.9058C171.52 39.5828 172.015 40.0776 172.51 40.3901C173.083 40.7547 173.682 40.9631 174.307 41.0151C175.322 41.0151 176.143 40.7547 176.768 40.2339C177.419 39.7391 177.939 39.036 178.33 38.1245C178.721 37.2131 179.007 36.1323 179.189 34.8823C179.372 33.6063 179.502 32.2261 179.58 30.7417C179.085 31.9136 178.408 32.9162 177.549 33.7495C176.715 34.5568 175.635 34.9604 174.307 34.9604ZM196.924 31.0151C196.872 32.0308 196.689 32.9683 196.377 33.8276C196.09 34.687 195.687 35.4422 195.166 36.0933C194.645 36.7183 194.02 37.2131 193.291 37.5776C192.588 37.9422 191.807 38.1375 190.947 38.1636C190.192 38.1896 189.476 38.0073 188.799 37.6167C188.148 37.2261 187.575 36.6792 187.08 35.9761C186.585 35.2729 186.208 34.4396 185.947 33.4761C185.713 32.4865 185.648 31.4188 185.752 30.2729C185.83 28.9448 186.077 27.812 186.494 26.8745C186.911 25.911 187.354 25.1167 187.822 24.4917C188.291 23.8667 188.721 23.411 189.111 23.1245C189.528 22.812 189.788 22.6297 189.893 22.5776C190.075 22.4995 190.244 22.4865 190.4 22.5386C190.557 22.5646 190.726 22.6037 190.908 22.6558C190.96 22.6818 191.012 22.7469 191.064 22.8511C191.169 23.0334 191.234 23.3719 191.26 23.8667C191.39 23.5802 191.559 23.3459 191.768 23.1636C191.976 22.9813 192.184 22.8511 192.393 22.7729C192.653 22.6688 192.913 22.6037 193.174 22.5776C193.356 22.5516 193.669 22.6948 194.111 23.0073C194.58 23.3198 195.023 23.8146 195.439 24.4917C195.882 25.1688 196.26 26.0542 196.572 27.1479C196.885 28.2157 197.002 29.5047 196.924 31.0151ZM194.268 30.5464C194.294 29.9214 194.268 29.2964 194.189 28.6714C194.137 28.0203 194.033 27.4344 193.877 26.9136C193.747 26.3667 193.577 25.937 193.369 25.6245C193.161 25.286 192.952 25.1167 192.744 25.1167C192.51 25.1688 192.249 25.286 191.963 25.4683C191.729 25.6245 191.468 25.8719 191.182 26.2104C190.895 26.549 190.622 27.0308 190.361 27.6558C190.335 27.5776 190.309 27.4344 190.283 27.2261C190.257 27.0438 190.231 26.8094 190.205 26.5229C190.205 26.2104 190.231 25.7938 190.283 25.2729C189.919 25.7157 189.632 26.2365 189.424 26.8354C189.242 27.4344 189.098 28.0073 188.994 28.5542C188.89 29.2052 188.812 29.8563 188.76 30.5073C188.734 31.2104 188.76 31.9006 188.838 32.5776C188.942 33.2547 189.098 33.8537 189.307 34.3745C189.541 34.8953 189.814 35.312 190.127 35.6245C190.439 35.937 190.817 36.0802 191.26 36.0542C191.702 36.0282 192.093 35.8459 192.432 35.5073C192.77 35.1688 193.07 34.7391 193.33 34.2183C193.59 33.6974 193.799 33.1115 193.955 32.4604C194.111 31.8094 194.215 31.1714 194.268 30.5464ZM207.9 23.2026C207.9 22.9162 208.07 22.7078 208.408 22.5776C208.773 22.4214 209.15 22.3433 209.541 22.3433C209.958 22.3433 210.335 22.4214 210.674 22.5776C211.012 22.7078 211.169 22.8901 211.143 23.1245C211.117 23.3068 211.09 23.6714 211.064 24.2183C211.038 24.7391 210.999 25.3641 210.947 26.0933C210.921 26.8224 210.882 27.6037 210.83 28.437C210.778 29.2703 210.726 30.0907 210.674 30.8979C210.648 31.6792 210.622 32.4084 210.596 33.0854C210.596 33.7625 210.596 34.2834 210.596 34.6479C210.596 35.1167 210.622 35.5464 210.674 35.937C210.726 36.2756 210.791 36.6141 210.869 36.9526C210.947 37.2651 211.064 37.4865 211.221 37.6167C211.012 37.6948 210.791 37.7469 210.557 37.7729C210.348 37.799 210.153 37.825 209.971 37.8511C209.762 37.8771 209.554 37.8901 209.346 37.8901C208.903 37.8901 208.525 37.799 208.213 37.6167C207.926 37.4344 207.783 37.0568 207.783 36.4839C207.783 36.1974 207.796 35.7808 207.822 35.2339C207.874 34.687 207.926 34.1011 207.979 33.4761C207.796 34.0229 207.575 34.5828 207.314 35.1558C207.054 35.7287 206.729 36.2365 206.338 36.6792C205.973 37.1219 205.557 37.4865 205.088 37.7729C204.619 38.0594 204.085 38.2026 203.486 38.2026C202.809 38.2026 202.184 38.0594 201.611 37.7729C201.064 37.4865 200.583 37.0828 200.166 36.562C199.749 36.0151 199.437 35.3511 199.229 34.5698C199.02 33.7886 198.942 32.8901 198.994 31.8745C198.994 31.0933 199.007 30.2599 199.033 29.3745C199.059 28.6193 199.098 27.7469 199.15 26.7573C199.202 25.7677 199.294 24.7391 199.424 23.6714C199.45 23.5672 199.632 23.437 199.971 23.2808C200.309 23.1245 200.687 22.9943 201.104 22.8901C201.52 22.786 201.924 22.7469 202.314 22.7729C202.705 22.799 202.992 22.9552 203.174 23.2417C203.044 23.7104 202.913 24.2703 202.783 24.9214C202.653 25.5464 202.536 26.1974 202.432 26.8745C202.327 27.5516 202.249 28.2157 202.197 28.8667C202.145 29.5177 202.119 30.1167 202.119 30.6636C202.119 31.1584 202.145 31.7052 202.197 32.3042C202.249 32.8771 202.34 33.424 202.471 33.9448C202.627 34.4396 202.835 34.8563 203.096 35.1948C203.382 35.5334 203.747 35.7026 204.189 35.7026C204.684 35.7026 205.114 35.4943 205.479 35.0776C205.869 34.6349 206.195 34.075 206.455 33.3979C206.715 32.7209 206.937 31.9526 207.119 31.0933C207.301 30.2078 207.445 29.3354 207.549 28.4761C207.679 27.6167 207.757 26.7964 207.783 26.0151C207.835 25.2078 207.874 24.5308 207.9 23.9839V23.2026ZM239.658 35.9761C240.335 36.7313 240.96 37.4084 241.533 38.0073C242.132 38.6063 242.627 39.0881 243.018 39.4526C242.705 39.661 242.393 39.8302 242.08 39.9604C241.794 40.0907 241.533 40.2078 241.299 40.312C241.012 40.4162 240.752 40.5073 240.518 40.5854C239.893 40.7157 239.32 40.6115 238.799 40.2729C238.304 39.9344 237.874 39.5438 237.51 39.1011C237.406 38.9969 237.249 38.7886 237.041 38.4761C236.52 38.8407 235.96 39.1922 235.361 39.5308C234.762 39.8693 234.111 40.1558 233.408 40.3901C232.705 40.6245 231.937 40.7808 231.104 40.8589C230.296 40.9631 229.424 40.9761 228.486 40.8979C227.523 40.8198 226.624 40.5464 225.791 40.0776C224.958 39.6089 224.229 39.0229 223.604 38.3198C222.979 37.6167 222.484 36.8354 222.119 35.9761C221.781 35.0907 221.611 34.1922 221.611 33.2808C221.611 32.3433 221.768 31.4448 222.08 30.5854C222.393 29.7 222.783 28.8667 223.252 28.0854C223.747 27.2782 224.281 26.5229 224.854 25.8198C225.452 25.1167 226.038 24.4787 226.611 23.9058C226.403 23.5151 226.208 23.1506 226.025 22.812C225.869 22.4474 225.726 22.0828 225.596 21.7183C224.971 20.2078 224.671 18.8016 224.697 17.4995C224.749 16.1974 225.049 15.0776 225.596 14.1401C226.143 13.1766 226.924 12.4474 227.939 11.9526C228.955 11.4578 230.153 11.2756 231.533 11.4058C232.34 11.4839 233.044 11.6662 233.643 11.9526C234.242 12.2131 234.736 12.5516 235.127 12.9683C235.518 13.3589 235.804 13.8146 235.986 14.3354C236.169 14.8302 236.26 15.3511 236.26 15.8979C236.26 16.4448 236.169 17.0438 235.986 17.6948C235.83 18.3459 235.557 19.036 235.166 19.7651C234.775 20.4943 234.255 21.2625 233.604 22.0698C232.952 22.8771 232.132 23.7104 231.143 24.5698C231.429 25.0386 231.729 25.5203 232.041 26.0151C232.354 26.4839 232.666 26.9787 232.979 27.4995C233.63 28.4631 234.359 29.4657 235.166 30.5073C235.973 31.549 236.794 32.5907 237.627 33.6323C238.226 32.8771 238.695 32.0308 239.033 31.0933C239.372 30.1558 239.541 29.1922 239.541 28.2026C239.827 28.3328 240.062 28.5021 240.244 28.7104C240.452 28.8927 240.622 29.075 240.752 29.2573C240.908 29.4917 241.051 29.7131 241.182 29.9214C241.494 30.6506 241.637 31.4188 241.611 32.2261C241.611 33.0334 241.221 33.9578 240.439 34.9995C240.361 35.1297 240.244 35.286 240.088 35.4683C239.958 35.6245 239.814 35.7938 239.658 35.9761ZM231.377 14.4136C231.038 14.3875 230.661 14.4136 230.244 14.4917C229.827 14.5698 229.437 14.7261 229.072 14.9604C228.708 15.1688 228.395 15.4683 228.135 15.8589C227.9 16.2235 227.783 16.6922 227.783 17.2651C227.783 17.6297 227.913 18.1636 228.174 18.8667C228.434 19.5698 228.825 20.3901 229.346 21.3276C230.622 20.1297 231.585 19.1271 232.236 18.3198C232.913 17.4865 233.252 16.7573 233.252 16.1323C233.252 15.0646 232.627 14.4917 231.377 14.4136ZM230.01 37.3823C230.843 37.4604 231.689 37.3823 232.549 37.1479C233.408 36.9136 234.229 36.536 235.01 36.0151C234.046 34.8172 232.965 33.411 231.768 31.7964C230.596 30.1558 229.463 28.5151 228.369 26.8745C227.249 28.0464 226.52 29.1141 226.182 30.0776C225.843 31.0151 225.674 31.8745 225.674 32.6558C225.674 33.0724 225.765 33.5412 225.947 34.062C226.13 34.5828 226.403 35.0776 226.768 35.5464C227.132 36.0151 227.588 36.4188 228.135 36.7573C228.682 37.0959 229.307 37.3042 230.01 37.3823Z" fill="#131A22"/>
</svg>
